<svg version="1.1" xmlns="http://www.w3.org/2000/svg" xmlns:xlink="http://www.w3.org/1999/xlink" width="473.62805" height="134.3819" viewBox="0,0,473.62805,134.3819"><defs><radialGradient cx="409.91637" cy="270.3819" r="67.40271" gradientUnits="userSpaceOnUse" id="color-1"><stop offset="0" stop-color="#00766a"/><stop offset="1" stop-color="#00766a" stop-opacity="0"/></radialGradient><radialGradient cx="71.09375" cy="270" r="67.40271" gradientUnits="userSpaceOnUse" id="color-2"><stop offset="0" stop-color="#00766a"/><stop offset="1" stop-color="#00766a" stop-opacity="0"/></radialGradient></defs><g transform="translate(-3.69104,-203)"><g data-paper-data="{&quot;isPaintingLayer&quot;:true}" fill-rule="nonzero" stroke-linecap="butt" stroke-linejoin="miter" stroke-miterlimit="10" stroke-dasharray="" stroke-dashoffset="0" style="mix-blend-mode: normal"><path d="M409.91637,203.3819c37.22549,0 67.40271,29.99692 67.40271,67c0,37.00308 -30.17722,67 -67.40271,67c-37.22549,0 -67.40271,-29.99692 -67.40271,-67c0,-37.00308 30.17722,-67 67.40272,-67z" fill="url(#color-1)" stroke="none" stroke-width="0"/><path d="M71.09375,203c37.22549,0 67.40271,29.99692 67.40271,67c0,37.00308 -30.17722,67 -67.40271,67c-37.22549,0 -67.40271,-29.99692 -67.40271,-67c0,-37.00308 30.17722,-67 67.40271,-67z" fill="url(#color-2)" stroke="none" stroke-width="0"/><path d="M42.80925,297.41506v-54.44804h55.37358v54.44804z" fill="#ffffff" stroke="#00ffe4" stroke-width="4"/><path d="M381.80925,297.41508v-54.44804h55.37358v54.44804z" fill="#ffffff" stroke="#00ffe4" stroke-width="4"/></g></g></svg>