<svg version="1.1" xmlns="http://www.w3.org/2000/svg" xmlns:xlink="http://www.w3.org/1999/xlink" width="64.06965" height="85.54816" viewBox="0,0,64.06965,85.54816"><defs><linearGradient x1="240" y1="138.22592" x2="240" y2="221.77408" gradientUnits="userSpaceOnUse" id="color-1"><stop offset="0" stop-color="#ff2e2e"/><stop offset="1" stop-color="#3c0825"/></linearGradient><linearGradient x1="128.96468" y1="562.42349" x2="128.96468" y2="600.81072" gradientUnits="userSpaceOnUse" id="color-2"><stop offset="0" stop-color="#ff0000"/><stop offset="1" stop-color="#ffffff"/></linearGradient></defs><g transform="translate(-207.96518,-137.22592)"><g data-paper-data="{&quot;isPaintingLayer&quot;:true}" fill-rule="nonzero" stroke="#ffffff" stroke-linecap="butt" stroke-linejoin="miter" stroke-miterlimit="10" stroke-dasharray="" stroke-dashoffset="0" style="mix-blend-mode: normal"><path d="M208.96518,221.77408v-83.54816h62.06965v83.54816z" fill="url(#color-1)" stroke-width="2"/><path d="M238.67302,192.02981c1.63916,1.63755 1.63916,4.2953 0,5.93412c-1.6384,1.63993 -4.29538,1.63993 -5.93531,0c-6.47031,-6.47039 -14.93622,-14.93664 -14.93622,-14.93664c-1.63874,-1.6384 -1.63874,-4.29572 0,-5.93488c0,0 9.81017,-9.81127 15.05674,-15.05708c1.63874,-1.63916 4.29538,-1.63874 5.93531,0c1.63908,1.63874 1.63908,4.29572 0,5.93489c-6.47039,6.46997 -7.87295,7.88936 -7.87295,7.88936c0,0 20.89125,0.00867 28.31011,0.00867c2.31797,0 4.19688,1.87857 4.19688,4.19654c0,2.31754 -1.87892,4.19688 -4.19688,4.19688c-8.84896,0 -28.33289,-0.00824 -28.33289,-0.00824c0,0 2.52856,2.52822 7.77522,7.77641z" fill="url(#color-2)" stroke-width="2.5"/></g></g></svg>