<svg version="1.1" xmlns="http://www.w3.org/2000/svg" xmlns:xlink="http://www.w3.org/1999/xlink" width="64.06965" height="85.54816" viewBox="0,0,64.06965,85.54816"><defs><linearGradient x1="240" y1="138.22592" x2="240" y2="221.77408" gradientUnits="userSpaceOnUse" id="color-1"><stop offset="0" stop-color="#ff2e2e"/><stop offset="1" stop-color="#3c0825"/></linearGradient><linearGradient x1="351.03532" y1="562.42349" x2="351.03532" y2="600.81072" gradientUnits="userSpaceOnUse" id="color-2"><stop offset="0" stop-color="#ff0000"/><stop offset="1" stop-color="#ffffff"/></linearGradient></defs><g transform="translate(-207.96517,-137.22592)"><g data-paper-data="{&quot;isPaintingLayer&quot;:true}" fill-rule="nonzero" stroke="#ffffff" stroke-linecap="butt" stroke-linejoin="miter" stroke-miterlimit="10" stroke-dasharray="" stroke-dashoffset="0" style="mix-blend-mode: normal"><path d="M208.96517,221.77408v-83.54816h62.06965v83.54816z" fill="url(#color-1)" stroke-width="2"/><path d="M241.32697,192.02984c5.24666,-5.24819 7.77522,-7.77641 7.77522,-7.77641c0,0 -19.48393,0.00824 -28.33289,0.00824c-2.31796,0 -4.19688,-1.87934 -4.19688,-4.19688c0,-2.31797 1.87891,-4.19654 4.19688,-4.19654c7.41886,0 28.31011,-0.00867 28.31011,-0.00867c0,0 -1.40256,-1.41939 -7.87295,-7.88936c-1.63908,-1.63917 -1.63908,-4.29615 0,-5.93489c1.63993,-1.63874 4.29657,-1.63916 5.93531,0c5.24657,5.24581 15.05674,15.05708 15.05674,15.05708c1.63874,1.63916 1.63874,4.29648 0,5.93488c0,0 -8.46591,8.46625 -14.93622,14.93664c-1.63993,1.63993 -4.29691,1.63993 -5.93531,0c-1.63916,-1.63882 -1.63916,-4.29657 0,-5.93412z" data-paper-data="{&quot;index&quot;:null}" fill="url(#color-2)" stroke-width="2.5"/></g></g></svg>