<svg version="1.1" xmlns="http://www.w3.org/2000/svg" xmlns:xlink="http://www.w3.org/1999/xlink" width="83.35782" height="84.50286" viewBox="0,0,83.35782,84.50286"><defs><linearGradient x1="240" y1="138.74857" x2="240" y2="221.25143" gradientUnits="userSpaceOnUse" id="color-1"><stop offset="0" stop-color="#ed2b2b"/><stop offset="1" stop-color="#811150"/></linearGradient><linearGradient x1="622.42349" y1="68.96468" x2="660.81072" y2="68.96468" gradientUnits="userSpaceOnUse" id="color-2"><stop offset="0" stop-color="#ff0000"/><stop offset="1" stop-color="#ffffff"/></linearGradient></defs><g transform="translate(-198.32109,-137.74857)"><g data-paper-data="{&quot;isPaintingLayer&quot;:true}" fill-rule="nonzero" stroke="#ffffff" stroke-linecap="butt" stroke-linejoin="miter" stroke-miterlimit="10" stroke-dasharray="" stroke-dashoffset="0" style="mix-blend-mode: normal"><path d="M280.67891,180c0,22.78254 -18.21257,41.25143 -40.67891,41.25143c-22.46634,0 -40.67891,-18.46889 -40.67891,-41.25143c0,-22.78254 18.21257,-41.25143 40.67891,-41.25143c22.46634,0 40.67891,18.46889 40.67891,41.25143z" data-paper-data="{&quot;index&quot;:null}" fill="url(#color-1)" stroke-width="2"/><path d="M252.02984,178.67302c-5.24819,-5.24666 -7.77641,-7.77522 -7.77641,-7.77522c0,0 0.00824,19.48393 0.00824,28.33289c0,2.31796 -1.87934,4.19688 -4.19688,4.19688c-2.31797,0 -4.19654,-1.87891 -4.19654,-4.19688c0,-7.41886 -0.00867,-28.31011 -0.00867,-28.31011c0,0 -1.41939,1.40256 -7.88936,7.87295c-1.63917,1.63908 -4.29615,1.63908 -5.93489,0c-1.63874,-1.63993 -1.63916,-4.29657 0,-5.93531c5.24581,-5.24657 15.05708,-15.05674 15.05708,-15.05674c1.63916,-1.63874 4.29648,-1.63874 5.93488,0c0,0 8.46625,8.46591 14.93664,14.93622c1.63993,1.63993 1.63993,4.29691 0,5.93531c-1.63882,1.63916 -4.29657,1.63916 -5.93412,0z" data-paper-data="{&quot;index&quot;:null}" fill="url(#color-2)" stroke-width="2.5"/></g></g></svg>